<?xml version="1.0" encoding="utf-8"?>
<!-- Generator: Adobe Illustrator 24.0.2, SVG Export Plug-In . SVG Version: 6.00 Build 0)  -->
<svg version="1.1" id="Capa_1" xmlns="http://www.w3.org/2000/svg" xmlns:xlink="http://www.w3.org/1999/xlink" x="0px" y="0px"
	 viewBox="0 0 147.4 52.4" style="enable-background:new 0 0 147.4 52.4;" xml:space="preserve">
<g>
	<g>
		<path style="fill:#2EA836;" d="M0,29.7c0-3,1.2-5.4,3.5-7c2.3-1.7,5.7-2.5,10-2.5h4.1v-1c0-1-0.4-1.7-1.2-2.4
			c-0.7-0.6-1.7-0.9-3-0.9c-1.1,0-2.1,0.2-2.8,0.7s-1.1,1.1-1.2,2H0.5c0.3-2.9,1.6-5.1,3.9-6.7s5.5-2.4,9.4-2.4
			c4.1,0,7.3,0.9,9.5,2.6c2.3,1.7,3.4,4.2,3.4,7.6v8.6c0,0.6,0.1,1.1,0.4,1.3c0.2,0.2,0.7,0.3,1.3,0.3H29v7.6h-4.7
			c-1.8,0-3.2-0.4-4-1.2s-1.2-1.8-1.2-3.1V33c-1.1,1.6-2.3,2.8-3.7,3.6s-3.2,1.2-5.2,1.2c-3.1,0-5.5-0.7-7.4-2.1
			C1,34.3,0,32.3,0,29.7z M9.3,29c0,0.8,0.3,1.4,0.8,1.8c0.6,0.5,1.3,0.7,2.2,0.7c1.6,0,2.9-0.5,3.8-1.5c1-1,1.5-2.3,1.5-3.9V26
			h-3.9c-1.4,0-2.4,0.3-3.2,0.8C9.6,27.3,9.3,28,9.3,29z"/>
		<path style="fill:#2EA836;" d="M29.1,17.5V9.9h4.3v-2c0-2.4,0.8-4.3,2.3-5.7C37.3,0.7,39.6,0,42.4,0h6.8v7.7h-4.6
			c-1.3,0-1.9,0.6-1.9,1.9v0.3h6.5v7.7h-6.5v20h-9.3v-20L29.1,17.5L29.1,17.5z"/>
		<path style="fill:#2EA836;" d="M51.9,37.5V0h9.3v37.5H51.9z"/>
		<path style="fill:#2EA836;" d="M64.8,23.7c0-2.8,0.6-5.3,1.9-7.4c1.2-2.1,3-3.8,5.3-4.9c2.3-1.2,5-1.8,7.9-1.8s5.7,0.6,8,1.8
			c2.3,1.1,4,2.8,5.2,4.9c1.2,2.2,1.9,4.6,1.9,7.4s-0.6,5.3-1.9,7.4c-1.3,2.2-3,3.8-5.2,5c-2.3,1.2-4.9,1.7-8,1.7s-5.7-0.6-7.9-1.7
			c-2.3-1.2-4-2.8-5.3-5S64.8,26.5,64.8,23.7z M74.3,23.7c0,2,0.5,3.6,1.5,4.9c1,1.2,2.4,1.9,4.1,1.9s3.1-0.6,4.1-1.9
			s1.5-2.9,1.5-4.9S85,20,84,18.8c-1-1.2-2.4-1.8-4.1-1.8c-1.8,0-3.1,0.6-4.1,1.8S74.3,21.6,74.3,23.7z"/>
		<path style="fill:#2EA836;" d="M98.6,37.5V9.9h8.5l0.7,4.1c0.8-1.3,1.8-2.4,3.1-3.1c1.2-0.7,2.8-1,4.7-1h1.4v8.2h-3.5
			c-3.8,0-5.6,2-5.6,6.1v13.3H98.6z"/>
		<path style="fill:#2EA836;" d="M118.3,23.8c0-2.9,0.6-5.4,1.8-7.6c1.2-2.2,2.9-3.9,5-5c2.2-1.2,4.7-1.7,7.5-1.7
			c2.9,0,5.5,0.5,7.7,1.6s4,2.7,5.2,4.7s1.9,4.3,1.9,7c0,1.2-0.1,2.2-0.3,3H128V26c0.5,3,2.3,4.4,5.4,4.4c2.6,0,4.2-0.8,4.8-2.3h9.1
			c-0.3,1.8-1,3.4-2.1,4.9s-2.6,2.7-4.5,3.5c-1.9,0.9-4.1,1.3-6.6,1.3c-3.3,0-6.1-0.6-8.4-1.7c-2.4-1.2-4.2-2.8-5.4-4.9
			C118.9,29.1,118.3,26.6,118.3,23.8z M128.1,20.2h10.3c-0.3-1.3-0.8-2.3-1.7-3s-2.1-1-3.5-1s-2.6,0.3-3.5,1
			C128.8,17.9,128.3,18.9,128.1,20.2z"/>
	</g>
	<g>
		<path style="fill:#D9E021;" d="M33.4,52v-8.8H37c0.6,0,1.2,0.1,1.7,0.4c0.5,0.2,0.9,0.6,1.1,1c0.3,0.4,0.4,1,0.4,1.5
			c0,0.6-0.1,1.1-0.4,1.5c-0.3,0.4-0.6,0.8-1.1,1c-0.5,0.2-1,0.4-1.7,0.4h-1.7v3H33.4z M35.3,47.5h1.5c0.4,0,0.8-0.1,1.1-0.4
			c0.3-0.2,0.4-0.6,0.4-1c0-0.4-0.1-0.7-0.4-1c-0.3-0.2-0.6-0.4-1.1-0.4h-1.5V47.5z"/>
		<path style="fill:#D9E021;" d="M50.6,52v-8.8h3.6c0.6,0,1.2,0.1,1.7,0.4c0.5,0.2,0.9,0.6,1.1,1c0.3,0.4,0.4,1,0.4,1.5
			c0,0.6-0.1,1.1-0.4,1.5c-0.3,0.4-0.6,0.8-1.1,1l1.7,3.4h-2.1l-1.5-3h-1.6v3H50.6z M52.5,47.5H54c0.4,0,0.8-0.1,1.1-0.4
			c0.3-0.2,0.4-0.6,0.4-1c0-0.4-0.1-0.7-0.4-1c-0.3-0.2-0.6-0.4-1.1-0.4h-1.5V47.5z"/>
		<path style="fill:#D9E021;" d="M67.7,47.6c0-0.9,0.2-1.6,0.6-2.3c0.4-0.7,0.9-1.2,1.5-1.6c0.7-0.4,1.4-0.6,2.3-0.6
			c0.9,0,1.6,0.2,2.3,0.6c0.7,0.4,1.2,0.9,1.6,1.6c0.4,0.7,0.6,1.4,0.6,2.3c0,0.8-0.2,1.6-0.6,2.3c-0.4,0.7-0.9,1.2-1.6,1.6
			c-0.7,0.4-1.4,0.6-2.3,0.6c-0.8,0-1.6-0.2-2.3-0.6c-0.7-0.4-1.2-0.9-1.5-1.6C67.8,49.2,67.7,48.5,67.7,47.6z M69.6,47.6
			c0,0.6,0.1,1.1,0.3,1.5c0.2,0.4,0.5,0.8,0.9,1c0.4,0.2,0.8,0.4,1.3,0.4c0.5,0,0.9-0.1,1.3-0.4c0.4-0.2,0.6-0.6,0.9-1
			c0.2-0.4,0.3-0.9,0.3-1.5c0-0.6-0.1-1.1-0.3-1.5c-0.2-0.4-0.5-0.8-0.9-1c-0.4-0.2-0.8-0.4-1.3-0.4c-0.5,0-0.9,0.1-1.3,0.4
			c-0.4,0.2-0.6,0.6-0.9,1C69.7,46.6,69.6,47.1,69.6,47.6z"/>
		<path style="fill:#D9E021;" d="M86.9,52v-8.8h3.1c0.9,0,1.6,0.2,2.3,0.6c0.7,0.4,1.2,0.9,1.6,1.6c0.4,0.7,0.5,1.4,0.5,2.3
			c0,0.9-0.2,1.6-0.5,2.3c-0.4,0.7-0.9,1.2-1.6,1.6c-0.7,0.4-1.4,0.6-2.3,0.6H86.9z M88.8,50.4h1.2c0.8,0,1.4-0.3,1.9-0.8
			c0.4-0.5,0.7-1.2,0.7-2.1c0-0.9-0.2-1.5-0.7-2.1c-0.4-0.5-1.1-0.8-1.9-0.8h-1.2V50.4z"/>
		<path style="fill:#D9E021;" d="M104.8,48.2v-5h1.9v5.1c0,0.7,0.1,1.2,0.4,1.6c0.3,0.4,0.7,0.5,1.3,0.5c0.6,0,1-0.2,1.3-0.5
			c0.3-0.4,0.4-0.9,0.4-1.6v-5.1h1.9v5c0,1.3-0.3,2.2-0.9,2.9c-0.6,0.7-1.5,1-2.7,1c-1.2,0-2.1-0.3-2.7-1
			C105.1,50.4,104.8,49.5,104.8,48.2z"/>
		<path style="fill:#D9E021;" d="M122.5,47.6c0-0.9,0.2-1.7,0.5-2.4c0.4-0.7,0.9-1.2,1.5-1.6c0.7-0.4,1.4-0.6,2.3-0.6
			c0.7,0,1.3,0.1,1.9,0.4c0.5,0.3,1,0.6,1.3,1.1c0.3,0.5,0.5,1,0.6,1.7h-1.9c-0.1-0.5-0.3-0.9-0.7-1.2c-0.4-0.3-0.8-0.4-1.3-0.4
			c-0.7,0-1.3,0.3-1.7,0.8c-0.4,0.5-0.6,1.2-0.6,2.1c0,0.9,0.2,1.6,0.6,2.1c0.4,0.5,1,0.8,1.7,0.8c0.5,0,1-0.1,1.3-0.4
			c0.3-0.3,0.6-0.7,0.7-1.2h1.9c-0.1,0.6-0.3,1.2-0.6,1.7c-0.3,0.5-0.8,0.9-1.3,1.1c-0.5,0.3-1.2,0.4-1.9,0.4
			c-0.9,0-1.6-0.2-2.3-0.6c-0.6-0.4-1.1-0.9-1.5-1.6C122.7,49.3,122.5,48.5,122.5,47.6z"/>
		<path style="fill:#D9E021;" d="M140.6,44.8v-1.6h7v1.6H145V52h-1.9v-7.2H140.6z"/>
	</g>
</g>
</svg>
